<?xml version="1.0" encoding="UTF-8"?>
<svg id="Layer_1" xmlns="http://www.w3.org/2000/svg" version="1.1" xmlns:xlink="http://www.w3.org/1999/xlink" width="64"
  height="64" viewBox="0 0 595.28 208.82">
  <!-- Generator: Adobe Illustrator 29.1.0, SVG Export Plug-In . SVG Version: 2.1.0 Build 142)  -->
  <defs>
    <style>
      .st0 {
        fill: url(#linear-gradient2);
      }

      .st1, .st2 {
        fill: #231f20;
      }

      .st3 {
        fill: url(#linear-gradient1);
      }

      .st2 {
        stroke: #231f20;
        stroke-miterlimit: 10;
        stroke-width: 5.49px;
      }

      .st4 {
        fill: url(#linear-gradient4);
      }

      .st5 {
        fill: url(#linear-gradient5);
      }

      .st6 {
        fill: url(#linear-gradient3);
      }

      .Graphic_x0020_Style_x0020_3 {
        fill: url(#linear-gradient);
      }

      .st7 {
        fill: #224192;
      }
    </style>
    <linearGradient id="linear-gradient" x1="229.26" y1="127.21" x2="302.75" y2="127.21" gradientUnits="userSpaceOnUse">
      <stop offset="0" stop-color="#25b3de"/>
      <stop offset="1" stop-color="#50c7e0"/>
    </linearGradient>
    <linearGradient id="linear-gradient1" x1="254.42" y1="79.58" x2="324.6" y2="79.58" gradientUnits="userSpaceOnUse">
      <stop offset=".52" stop-color="#246eb7"/>
      <stop offset="1" stop-color="#25b3de"/>
    </linearGradient>
    <linearGradient id="linear-gradient2" x1="256.61" y1="128.79" x2="324.6" y2="128.79" gradientUnits="userSpaceOnUse">
      <stop offset=".63" stop-color="#246eb7"/>
      <stop offset="1" stop-color="#25b3de"/>
    </linearGradient>
    <linearGradient id="linear-gradient3" y1="103.71" y2="103.71" xlink:href="#linear-gradient"/>
    <linearGradient id="linear-gradient4" y1="103.71" y2="103.71" xlink:href="#linear-gradient"/>
    <linearGradient id="linear-gradient5" x1="222.74" y1="80.06" x2="292.04" y2="79.11" gradientUnits="userSpaceOnUse">
      <stop offset=".4" stop-color="#25b3de"/>
      <stop offset=".57" stop-color="#39bcde"/>
      <stop offset=".76" stop-color="#4ac4df"/>
      <stop offset=".91" stop-color="#50c7e0"/>
    </linearGradient>
  </defs>
  <g>
    <g>
      <path class="st3" d="M324.6,54.53v30.95c0,4.3-2.18,8.31-5.79,10.63l-10.42,6.73h-.01s-2.75,1.78-2.75,1.78h-49.01l-1.68-1.77-.52-.55,21-16.82,2.94-1.85,46.25-29.1Z"/>
      <path class="st0" d="M324.6,125.17v27.79l-46.74-29.95-9.75-6.25-11.49-12.14h49.01l.05.03,12.17,8.01c4.22,2.77,6.76,7.47,6.76,12.51Z"/>
    </g>
    <g>
      <polygon class="st7" points="308.41 102.85 254.94 102.85 254.42 102.3 275.41 85.48 278.35 83.63 308.38 102.84 308.41 102.85"/>
      <polygon class="st7" points="308.41 102.85 305.68 104.65 277.86 123.01 268.11 116.76 256.61 104.62 254.94 102.85 308.41 102.85"/>
    </g>
    <g>
      <g>
        <path class="st6" d="M229.26,55.97v26.24c0,5.27,2.57,10.2,6.89,13.22l10.77,7.54h55.83l-73.48-47Z"/>
        <path class="st4" d="M246.91,102.97h0s-6.85,3.85-6.85,3.85c-6.68,3.75-10.81,10.82-10.81,18.48v26.15l73.49-48.48h0s-55.83,0-55.83,0Z"/>
      </g>
      <g>
        <path class="st5" d="M229.26,55.97v26.24c0,5.27,2.57,10.2,6.89,13.22l10.77,7.54h55.83l-73.48-47Z"/>
        <path class="Graphic_x0020_Style_x0020_3" d="M246.91,102.97h0s-6.85,3.85-6.85,3.85c-6.68,3.75-10.81,10.82-10.81,18.48v26.15l73.49-48.48h0s-55.83,0-55.83,0Z"/>
      </g>
    </g>
  </g>
</svg>