<?xml version="1.0" encoding="UTF-8"?>
<svg id="Layer_1" xmlns="http://www.w3.org/2000/svg" version="1.1" xmlns:xlink="http://www.w3.org/1999/xlink" viewBox="0 0 595.28 208.82">
  <!-- Generator: Adobe Illustrator 29.1.0, SVG Export Plug-In . SVG Version: 2.1.0 Build 142)  -->
  <defs>
    <style>
      .st0 {
        fill: url(#linear-gradient2);
      }

      .st1, .st2 {
        fill: #231f20;
      }

      .st3 {
        fill: url(#linear-gradient1);
      }

      .st2 {
        stroke: #231f20;
        stroke-miterlimit: 10;
        stroke-width: 5.49px;
      }

      .st4 {
        fill: url(#linear-gradient4);
      }

      .st5 {
        fill: url(#linear-gradient5);
      }

      .st6 {
        fill: url(#linear-gradient3);
      }

      .Graphic_x0020_Style_x0020_3 {
        fill: url(#linear-gradient);
      }

      .st7 {
        fill: #224192;
      }
    </style>
    <linearGradient id="linear-gradient" x1="229.26" y1="127.21" x2="302.75" y2="127.21" gradientUnits="userSpaceOnUse">
      <stop offset="0" stop-color="#25b3de"/>
      <stop offset="1" stop-color="#50c7e0"/>
    </linearGradient>
    <linearGradient id="linear-gradient1" x1="254.42" y1="79.58" x2="324.6" y2="79.58" gradientUnits="userSpaceOnUse">
      <stop offset=".52" stop-color="#246eb7"/>
      <stop offset="1" stop-color="#25b3de"/>
    </linearGradient>
    <linearGradient id="linear-gradient2" x1="256.61" y1="128.79" x2="324.6" y2="128.79" gradientUnits="userSpaceOnUse">
      <stop offset=".63" stop-color="#246eb7"/>
      <stop offset="1" stop-color="#25b3de"/>
    </linearGradient>
    <linearGradient id="linear-gradient3" y1="103.71" y2="103.71" xlink:href="#linear-gradient"/>
    <linearGradient id="linear-gradient4" y1="103.71" y2="103.71" xlink:href="#linear-gradient"/>
    <linearGradient id="linear-gradient5" x1="222.74" y1="80.06" x2="292.04" y2="79.11" gradientUnits="userSpaceOnUse">
      <stop offset=".4" stop-color="#25b3de"/>
      <stop offset=".57" stop-color="#39bcde"/>
      <stop offset=".76" stop-color="#4ac4df"/>
      <stop offset=".91" stop-color="#50c7e0"/>
    </linearGradient>
  </defs>
  <path class="st2" d="M13.75,148.72l28.98-74c3.84-9.82,12.84-15.95,23.38-15.95s19.53,6.13,23.38,15.95l28.98,74h-13.79l-27.15-69.32c-1.92-4.89-6.16-7.79-11.42-7.79s-9.5,2.9-11.42,7.79l-27.15,69.32h-13.79Z"/>
  <path class="st2" d="M151.47,148.72h-12.84V58.77h12.84v53.11l43.53-53.11h16.59l-36.87,44.98,10.38,12.66,26.49,32.31h-16.59l-18.19-22.19-10.38-12.66-14.96,18.26v16.6Z"/>
  <path class="st1" d="M358.63,123.3c5.8,6.16,12.8,9.24,20.98,9.24,6.6,0,12.7-2.17,18.31-6.51,5.61-4.34,10.46-9.94,14.55-16.81,7.13-12.19,13.59-21.85,19.4-28.99v-26.89h15.83v11.97c8.58-8.54,18.47-13.02,29.69-13.45,14.78-.56,25.63,3.92,32.56,13.45,6.93,9.53,10.39,21.57,10.39,36.14v47.69h-15.83v-47.69c0-22.83-9.04-33.82-27.12-32.98-9.63.42-18.38,5.15-26.23,14.18-7.85,9.03-15.61,19.99-23.26,32.88-1.58,2.94-2.71,4.9-3.37,5.88-5.54,8.82-11.94,15.79-19.2,20.9-7.26,5.11-15.84,7.67-25.73,7.67-8.45,0-16.2-2.21-23.26-6.62-7.06-4.41-12.67-10.36-16.82-17.86-4.16-7.49-6.23-15.65-6.23-24.48s2.08-17.19,6.23-24.69c4.16-7.49,9.76-13.45,16.82-17.86,7.06-4.41,14.81-6.62,23.26-6.62,10.82,0,20.12,3.5,27.91,10.5,3.69,3.22,9.1,10.37,16.23,21.43l-65.12,39.5ZM401.19,79.39c-5.94-6.58-13.13-9.87-21.57-9.87s-15.34,3.08-21.08,9.24c-5.74,6.17-8.61,13.59-8.61,22.27,0,2.94.33,5.81.99,8.61l50.27-30.25ZM447.7,95.15v53.36h-15.83v-27.94c2.77-5.88,8.05-14.35,15.83-25.42Z"/>
  <g>
    <path class="st1" d="M533.4,125.02c2.68,5.37,7.7,9.24,13.58,10.44,1.3.27,2.63.4,3.97.4,10.83,0,19.6-8.77,19.6-19.61,0-4.7-1.21-8.97-4.03-12.76-3.57-4.79-8.99-7.88-14.02-10.9-5.15-3.09-10.22-6.27-14.09-10.95-5.41-6.54-7.26-14.57-7.47-22.88h12.86c.2,7.61,1.94,13.34,8.21,18.16,4.01,3.09,8.43,5.55,12.72,8.21,4.78,2.97,8.72,6.13,12.1,10.67,4.48,6.02,6.58,12.97,6.58,20.45,0,6.31-1.81,12.44-5.26,17.72-6.01,9.21-16.2,14.74-27.2,14.74-12.07,0-23.15-6.7-28.76-17.38l-.07-.13,11.21-6.34.07.14Z"/>
    <path class="st1" d="M550.95,151.47c-13.14,0-25.09-7.22-31.19-18.85l-1.32-2.48,16.06-9.08,1.37,2.73c2.29,4.59,6.66,7.95,11.68,8.98,1.12.23,2.26.35,3.41.35,9.3,0,16.86-7.56,16.86-16.86,0-4.33-1.14-7.97-3.49-11.12-3.05-4.09-7.8-6.94-12.4-9.69l-.83-.49c-5.47-3.28-10.72-6.63-14.79-11.55-5.19-6.27-7.84-14.3-8.1-24.56l-.07-2.82h18.35l.07,2.67c.21,7.86,2.14,12.21,7.14,16.06,2.88,2.22,5.96,4.09,9.23,6.06,1.09.66,2.18,1.32,3.27,1.99,5.74,3.58,9.59,6.97,12.86,11.36,4.73,6.34,7.13,13.77,7.13,22.09,0,6.86-1.97,13.51-5.71,19.22-6.54,10.01-17.57,15.99-29.5,15.99ZM525.88,132.24c5.44,8.54,14.82,13.74,25.06,13.74s19.39-5.05,24.91-13.5c3.15-4.82,4.81-10.43,4.81-16.22,0-7.1-2.03-13.43-6.04-18.8-2.83-3.8-6.23-6.79-11.35-9.98-1.06-.66-2.13-1.31-3.21-1.96-3.25-1.97-6.61-4-9.74-6.41-6.84-5.27-8.66-11.47-9.14-17.59h-7.36c.59,7.63,2.79,13.67,6.69,18.38,3.52,4.26,8.15,7.2,13.39,10.35l.82.49c4.82,2.88,10.29,6.15,13.99,11.12,3.04,4.07,4.58,8.92,4.58,14.4,0,12.33-10.03,22.35-22.35,22.35-1.52,0-3.04-.15-4.52-.46-5.76-1.18-10.87-4.68-14.12-9.55l-6.43,3.64Z"/>
  </g>
  <g>
    <g>
      <path class="st3" d="M324.6,54.53v30.95c0,4.3-2.18,8.31-5.79,10.63l-10.42,6.73h-.01s-2.75,1.78-2.75,1.78h-49.01l-1.68-1.77-.52-.55,21-16.82,2.94-1.85,46.25-29.1Z"/>
      <path class="st0" d="M324.6,125.17v27.79l-46.74-29.95-9.75-6.25-11.49-12.14h49.01l.05.03,12.17,8.01c4.22,2.77,6.76,7.47,6.76,12.51Z"/>
    </g>
    <g>
      <polygon class="st7" points="308.41 102.85 254.94 102.85 254.42 102.3 275.41 85.48 278.35 83.63 308.38 102.84 308.41 102.85"/>
      <polygon class="st7" points="308.41 102.85 305.68 104.65 277.86 123.01 268.11 116.76 256.61 104.62 254.94 102.85 308.41 102.85"/>
    </g>
    <g>
      <g>
        <path class="st6" d="M229.26,55.97v26.24c0,5.27,2.57,10.2,6.89,13.22l10.77,7.54h55.83l-73.48-47Z"/>
        <path class="st4" d="M246.91,102.97h0s-6.85,3.85-6.85,3.85c-6.68,3.75-10.81,10.82-10.81,18.48v26.15l73.49-48.48h0s-55.83,0-55.83,0Z"/>
      </g>
      <g>
        <path class="st5" d="M229.26,55.97v26.24c0,5.27,2.57,10.2,6.89,13.22l10.77,7.54h55.83l-73.48-47Z"/>
        <path class="Graphic_x0020_Style_x0020_3" d="M246.91,102.97h0s-6.85,3.85-6.85,3.85c-6.68,3.75-10.81,10.82-10.81,18.48v26.15l73.49-48.48h0s-55.83,0-55.83,0Z"/>
      </g>
    </g>
  </g>
</svg>